<?xml version="1.0" standalone="no"?><!DOCTYPE svg PUBLIC "-//W3C//DTD SVG 1.1//EN" "http://www.w3.org/Graphics/SVG/1.1/DTD/svg11.dtd"><svg t="1627060806302" class="icon" viewBox="0 0 1024 1024" version="1.1" xmlns="http://www.w3.org/2000/svg" p-id="1370" xmlns:xlink="http://www.w3.org/1999/xlink" width="40" height="40"><defs><style type="text/css">@font-face { font-family: feedback-iconfont; src: url("//at.alicdn.com/t/font_1031158_1uhr8ri0pk5.eot?#iefix") format("embedded-opentype"), url("//at.alicdn.com/t/font_1031158_1uhr8ri0pk5.woff2") format("woff2"), url("//at.alicdn.com/t/font_1031158_1uhr8ri0pk5.woff") format("woff"), url("//at.alicdn.com/t/font_1031158_1uhr8ri0pk5.ttf") format("truetype"), url("//at.alicdn.com/t/font_1031158_1uhr8ri0pk5.svg#iconfont") format("svg"); }
</style></defs><path d="M924.32 337.31a449.5 449.5 0 1 0 35.22 174.42 446.59 446.59 0 0 0-35.22-174.42zM511.47 895.65c-211.7 0-383.93-172.22-383.93-383.92s172.23-383.92 383.93-383.92S895.39 300 895.39 511.73 723.16 895.65 511.47 895.65z m247-383.92a32 32 0 0 1-32 32h-183v183a32 32 0 0 1-64 0v-183h-183a32 32 0 0 1 0-64h183v-183a32 32 0 0 1 64 0v183h183a32 32 0 0 1 32 32z" fill="#ffffff" p-id="1371"></path></svg>